Coordinates
version=1
nRows=8
nColumns=36
inDegrees=yes

Units are S.I. units (second, meters, Newtons, ...)
If the header above contains a line with 'inDegrees', this indicates whether rotational values are in degrees (yes) or radians (no).

endheader
time	pelvis_tilt	pelvis_list	pelvis_rotation	pelvis_tx	pelvis_ty	pelvis_tz	hip_flexion_r	hip_adduction_r	hip_rotation_r	knee_angle_r	knee_angle_r_beta	ankle_angle_r	subtalar_angle_r	mtp_angle_r	hip_flexion_l	hip_adduction_l	hip_rotation_l	knee_angle_l	knee_angle_l_beta	ankle_angle_l	subtalar_angle_l	mtp_angle_l	lumbar_extension	lumbar_bending	lumbar_rotation	arm_flex_r	arm_add_r	arm_rot_r	elbow_flex_r	pro_sup_r	arm_flex_l	arm_add_l	arm_rot_l	elbow_flex_l	pro_sup_l
      0.00000000	     -4.49976163	      1.83616216	     -0.83683657	     -0.99100905	      1.29573051	     -0.08152550	      8.49926587	     -2.84961539	     -1.45110271	      8.87224614	      0.15484991	      7.55614850	     -9.65604028	     -6.53657326	     12.22122883	      1.09295290	      3.88043446	     16.08524724	      0.28074053	      4.42152385	     -4.99171837	     -6.53657326	    -13.59874048	     -1.01150181	      0.60525177	     18.11922157	     -4.50335139	     28.96816817	    124.80227972	    104.07727346	     19.93051715	     -9.33125719	     30.49113276	    123.40424169	    102.58248667
      0.00416670	     -4.47792009	      1.17074097	     -0.71517397	     -0.99126047	      1.29961354	     -0.08182766	      7.70565202	     -2.01743730	     -0.72170012	      7.56388200	      0.13201465	      9.52346533	     -6.76861606	     -6.93846731	     12.07945269	      0.75209372	      5.98721740	     15.20895845	      0.26544640	      3.81893551	     -5.09530428	     -6.93846731	    -12.65560461	     -0.27408509	      1.57728656	     18.33617726	     -4.66296294	     27.56547035	    122.50295265	    101.08062588	     20.25834367	     -8.84313034	     30.55904652	    121.79283539	     99.91555097
      0.00833330	     -5.01956540	      1.12361630	     -0.61679485	     -0.99164562	      1.29860318	     -0.08123594	      7.69356372	     -1.75232871	     -0.74016287	      6.48013903	      0.11309976	      9.51602583	     -6.90982947	     -6.97908374	     12.69040082	      0.65799282	      6.39361870	     14.92609321	      0.26050947	      3.28327472	     -5.65196038	     -6.97908374	    -12.45169923	     -0.32558187	      2.24140532	     17.43828566	     -5.26336105	     28.29270214	    122.91575194	    100.96451429	     20.13412984	     -8.61630898	     30.41878753	    121.80335361	     99.01964340
      0.01250000	     -4.38817644	      1.04589795	     -0.50140041	     -0.99204811	      1.29642040	     -0.08100963	      6.85637133	     -1.62939388	     -0.63758310	      6.22014089	      0.10856194	      9.71936810	     -6.80239016	     -7.03589794	     11.90754031	      0.66804923	      7.35315658	     14.54080228	      0.25378488	      3.14564378	     -6.65082742	     -7.03589794	    -13.25710920	     -0.32100170	      2.57563567	     17.42435533	     -5.64441478	     29.02808770	    122.94103819	    100.43395885	     20.80807331	     -8.38407298	     30.67757658	    121.38585370	     96.29146297
      0.01666670	     -4.49638985	      1.12038159	     -0.36504907	     -0.99220976	      1.30010969	     -0.08131923	      6.87973275	     -1.67791454	     -0.54881383	      6.12546002	      0.10690945	      9.60060935	     -7.12862869	     -7.18740820	     11.87086185	      0.75670988	      7.56148184	     14.16843970	      0.24728592	      3.19826813	     -6.71842025	     -7.18740820	    -13.53455446	     -0.34685683	      2.78764398	     17.21417427	     -5.77163477	     29.27893059	    123.12584712	    102.43301923	     20.85552748	     -8.32612684	     31.12598044	    121.69752136	     93.64361295
      0.02083330	     -4.25629302	      1.10726370	     -0.62421326	     -0.99233422	      1.29369113	     -0.08108205	      6.88801197	     -1.63118009	     -0.04278636	      6.65771261	      0.11619901	     10.15124117	     -7.65508782	     -7.21955412	     11.61111432	      0.75422678	      7.53716173	     14.35722179	      0.25058079	      3.87972468	     -7.14314003	     -7.21955412	    -13.78260585	     -0.55305744	      2.54043574	     17.58197138	     -5.55100216	     29.50319351	    123.44961062	    101.74893229	     21.46025302	     -8.62737243	     31.40686855	    122.96375660	     92.49481741
      0.02500000	     -4.35026074	      1.18831676	     -0.73647947	     -0.99246125	      1.29417272	     -0.08124090	      7.18150200	     -1.75571983	      0.04510418	      7.15522633	      0.12488226	     10.42795766	     -8.41183781	     -7.23917572	     11.72773644	      0.87353084	      7.50067292	     14.53223533	      0.25363535	      4.32421553	     -7.51708404	     -7.23917572	    -13.63001872	     -0.83079247	      2.33413780	     17.90939204	     -5.35638097	     29.45351008	    123.59869365	    100.89807761	     21.87330483	     -9.00661316	     31.80057529	    123.94995006	     91.45375887
      0.02916670	     -4.31256899	      1.29285545	     -0.76447631	     -0.99202216	      1.29800173	     -0.08111018	      7.19393899	     -1.90176643	      0.10389477	      7.36313605	      0.12851097	     10.29732255	     -9.02417216	     -7.26626464	     11.68654654	      0.97573345	      7.64689857	     14.57358361	      0.25435702	      4.25203477	     -7.85139488	     -7.26626464	    -13.62537465	     -1.11363857	      2.11567338	     18.10465571	     -5.18340477	     29.47028550	    123.48617145	     99.52966483	     22.12435618	     -9.41246851	     32.17983625	    124.47905764	     90.02648731
